<?xml version="1.0" encoding="UTF-8"?>
<svg id="Layer_1" data-name="Layer 1" xmlns="http://www.w3.org/2000/svg" viewBox="0 0 898 433.3">
  <defs>
    <style>
      .cls-1 {
        fill: #f0b725;
      }

      .cls-2 {
        fill: #5a5a5a;
      }

      .cls-3 {
        fill: #34363f;
      }

      .cls-4 {
        fill: #4d4d4d;
      }

      .cls-5 {
        stroke: #008d9f;
      }

      .cls-5, .cls-6, .cls-7, .cls-8, .cls-9 {
        stroke-miterlimit: 10;
      }

      .cls-5, .cls-10 {
        stroke-width: 4px;
      }

      .cls-5, .cls-10, .cls-7, .cls-9 {
        fill: none;
      }

      .cls-6 {
        stroke-width: 2px;
      }

      .cls-6, .cls-10, .cls-7, .cls-8, .cls-9 {
        stroke: #9e9e9e;
      }

      .cls-6, .cls-11 {
        fill: #d8d8da;
      }

      .cls-10 {
        stroke-linecap: round;
        stroke-linejoin: round;
      }

      .cls-12 {
        fill: #f1b729;
      }

      .cls-13 {
        fill: #e3a115;
      }

      .cls-14 {
        fill: #ecb32c;
      }

      .cls-15 {
        fill: #636262;
      }

      .cls-7 {
        stroke-width: 6px;
      }

      .cls-16, .cls-8 {
        fill: #9e9e9e;
      }

      .cls-9 {
        stroke-width: 7px;
      }

      .cls-17 {
        fill: #f0d452;
      }
    </style>
  </defs>
  <path class="cls-5" d="M829.46,43.91c-75.89-27.76-252.17-5.36-440.52,63.02-57.66,20.93-116,45.88-164.07,70.09"/>
  <path class="cls-5" d="M51.27,291.79C14.5,327.24-4.87,362.6,4.23,387.65c24.99,68.83,237.74,54.74,475.2-31.47,2.3-.83,13.38-4.94,15.66-5.78"/>
  <path class="cls-5" d="M836.38,150.62c19.6-22.81,30.96-42.44,30.15-60.59"/>
  <path class="cls-5" d="M651.11,281.76c14.08-7.3,29.09-15.76,42.06-23.17"/>
  <g>
    <path class="cls-11" d="M229.73,182.31c-3.39-6.3-8.42-12.28-15.1-17.92-6.68-5.65-15.38-10.33-26.11-14.05-10.72-3.71-23.05-5.57-36.97-5.57-2.52,0-5.01.06-7.45.17.31.07,3.82.86,4.27,1.88.28.62-.66,1.95-1.04,2.52-.1.14-.31.36-.47.57-.13.17-.22.34-.17.47.08.21.35.34.68.44l1.36,2.42s-.04.07-.06.1c-.36.58-2.37,1.48-1.93,1.93.45.44.03,1.33,0,1.77-.06.92.55,2.94,1.33,3.41.35.21,1.26-.15,1.63,0,.84.34,1.97,1.89,2.41,2.67.36.65.85,2.81.26,2.96-.59.15,0,2.11,0,2.82,0,.66,2.24,2.52,2.96,2.66.72.14,2.04.82,2.67,1.19.66.39,1.78,1.08,2.63,1.76,0,.01.01.01.01.01l2.19,3.9s.01.03.01.03c3.26.69,6.2,1.65,8.82,2.87,6.07,2.82,10.89,6.3,14.46,10.44,3.58,4.14,7.95,10.26,13.13,18.35,1.88,2.54,4.21,4.51,6.98,5.92,2.78,1.41,5.67,2.12,8.68,2.12,5.46,0,10.14-1.86,14.04-5.57,3.91-3.72,5.86-8.21,5.86-13.48,0-4.89-1.69-10.49-5.08-16.79ZM237.42,254.98c-2.49-3.57-5.76-5.88-9.81-6.91-4.04-1.04-8.98-1.56-14.81-1.56h-34.73s1.34,1.26,1.49,1.83c.04.13-.06.43,0,.56.28.51,1.49.96,1.95,1.33.24.18.68.61.79.89.09.26,0,.78,0,1.11s-1.7.29-2.26.22c-.65-.08-1.63-.33-2.52-.72-.89-.38-.71-1.18-.67-1.61.08-.9,0-3.61,0-3.61h-11.61c-1.27,0-2.49.07-3.64.23,0,0,.72,2.73,1.24,3.49.63.91,2.42,2.07,3.01,3.26.59,1.18,1.78-.05,2.37,0,.89.07,2.03,1.84,2.37,2.66.32.76.19,2.47,0,3.26-.24,1.04-1.46,3-2.37,3.56-1.48.92-5.28.66-6.81,1.48-.69.37-1.69,1.64-2.08,2.32-.64,1.13-1.22,3.79-2.07,4.77-.89,1.04-4.65,2.91-4.65,2.91,4,2.36,9.9,3.53,17.71,3.53h32.46v33.59c-8.75,4.7-17.39,8.32-25.9,10.86-8.51,2.54-17.62,3.81-27.3,3.81s-18.5-1.57-26.16-4.71c.38,1.13,1.22,3.8.88,4.7-.39,1.02-2.59,2.05-3.95,2.21-.19.02-.35.02-.5.01-.75-.06-1.69-1.89-2.44-1.78-1.3.2-3.1,3.52-2.45,4.67.49.85,2.82.93,3.63,1.62.06.05.11.1.15.16.93,1.26.62,4.67.89,6.22.22,1.26,1.56,4.22,1.56,4.89s1.13,4.35.44,5.55c-.92,1.6-4.85,2.81-6.67,3.12-.64.1-2.36.29-3.43.4,11.55,3.6,24.13,5.4,37.76,5.4s26.25-1.55,37.82-4.66c11.57-3.1,23.61-8.04,36.13-14.81,4.32-2.35,7.88-4.8,10.65-7.34,2.78-2.54,4.68-5.39,5.72-8.54,1.03-3.15,1.55-7.36,1.55-12.63v-39.65c0-7.15-1.25-12.51-3.74-16.09ZM183.58,271.32s-.17.19-.21.21c-.03.02-.05,0-.08-.01-.03-.03-.19-.2-.22-.24-.01-.01-.02-.03-.02-.04.12-.19.45-.32.16-.55-.12-.1-.31-.15-.47-.15v-.02c.17-.11.33-.22.55-.2.33.02.86.6.98.89.08.21.07.44-.02.64l-.14-.25c-.11-.16-.31-.44-.53-.28ZM183.3,273.83c-.06.01-.08-.01-.13-.04-.21-.18-.44-.46-.64-.66-.12-.13-.26-.25-.37-.39l.21-.21s.1.08.11.1c0,.01.01.02.01.02,0,.01.01.02.03.02.2.18.38.38.57.57l.02.02h.01s.01.02.02.03c.06.06.33.28.34.35,0,.04-.14.18-.18.19ZM180.46,271.1s-.03-.04-.01-.09c0-.02.17-.2.18-.2.03,0,.07.05.12.03.27-.25.6-.46.96-.51l-.37.3c-.1.1-.31.34-.32.48,0,.05.02.08.04.13l-.2.2c-.13-.06-.19-.04-.3.04-.23.17-.4.44-.59.65.04-.25.14-.49.27-.7.04-.05.22-.29.22-.33ZM181.11,271.29l.03.02c.28.3.62.57.9.88v.05c-.05.06-.12.13-.18.18h-.04s-.04-.04-.06-.06c-.01-.02-.02-.03-.03-.04h0c-.29-.28-.55-.55-.81-.83l.19-.2ZM176.07,261.78c-1.35,0-2.44-.47-2.44-1.05s1.09-1.06,2.44-1.06,2.45.48,2.45,1.06-1.1,1.05-2.45,1.05ZM137.56,353.17c-2.13,0-3.86-.99-3.86-2.21s1.73-2.21,3.86-2.21,3.85.99,3.85,2.21-1.73,2.21-3.85,2.21ZM143.85,335.71c-1.35,0-2.44-1.79-2.44-4s1.09-4,2.44-4,2.45,1.79,2.45,4-1.1,4-2.45,4ZM153.26,345.93c-.98,0-1.78-.79-1.78-1.78s.8-1.77,1.78-1.77,1.78.79,1.78,1.77-.8,1.78-1.78,1.78Z"/>
    <path class="cls-12" d="M161.58,246.8l-8.99,27.71c-4-2.35-6-6.35-6-11.99,0-4.61,1.67-8.42,5.01-11.43,2.6-2.34,5.92-3.78,9.98-4.29Z"/>
    <path class="cls-12" d="M90.5,220.04c-2.87,9.23-4.3,19.43-4.3,30.63,0,24.27,5.57,42.94,16.72,56.02,5.61,6.58,12.32,11.5,20.15,14.76l-2.74,7.05c-.19.02-.35.02-.5.01-.75-.06-1.69-1.89-2.44-1.78-1.3.2-3.1,3.52-2.45,4.67.49.85,2.82.93,3.63,1.62l-7.83,20.11c-1.66-.54-3.31-1.1-4.93-1.71-13.08-4.89-24.22-11.99-33.44-21.31-9.22-9.31-16.3-20.6-21.24-33.86-4.94-13.27-7.41-28.09-7.41-44.45s2.4-30.81,7.2-44.17c4.8-13.36,11.85-24.7,21.17-34.01,9.31-9.32,20.64-16.44,34-21.38,11.36-4.2,24.02-6.62,37.97-7.23l2.78,4.96c-.13.17-.22.34-.17.47.08.21.35.34.68.44l1.36,2.42s-.04.07-.06.1c-.36.58-2.37,1.48-1.93,1.93.45.44.03,1.33,0,1.77-.06.92.55,2.94,1.33,3.41.35.21,1.26-.15,1.63,0,.84.34,1.97,1.89,2.41,2.67.36.65.85,2.81.26,2.96-.59.15,0,2.11,0,2.82,0,.66,2.24,2.52,2.96,2.66.72.14,2.04.82,2.67,1.19.66.39,1.78,1.08,2.63,1.76,0,.01.01.01.01.01l2.19,3.9s.01.03.01.03c-4.26-.91-9.06-1.36-14.39-1.36-9.69,0-18.35,1.67-25.97,5.01-7.62,3.34-14.13,8.18-19.54,14.53-5.41,6.35-9.55,14.14-12.42,23.35Z"/>
    <path class="cls-11" d="M402.43,331.8l-9.88-25.96h-84.1l-9.88,26.53c-3.86,10.35-7.15,17.33-9.88,20.96-2.73,3.62-7.2,5.43-13.41,5.43-5.27,0-9.93-1.93-13.97-5.79-4.05-3.86-6.07-8.23-6.07-13.12,0-2.82.47-5.74,1.41-8.75.94-3.01,2.49-7.2,4.66-12.56l52.92-134.34c1.5-3.86,3.32-8.49,5.43-13.9,2.12-5.41,4.37-9.9,6.77-13.48,2.4-3.57,5.55-6.47,9.45-8.68,3.9-2.21,8.73-3.32,14.46-3.32s10.7,1.11,14.6,3.32c3.9,2.21,7.06,5.06,9.46,8.54,2.4,3.48,4.42,7.22,6.07,11.22,1.65,4,3.74,9.34,6.28,16.02l54.05,133.49c4.23,10.16,6.35,17.55,6.35,22.15s-2,9.2-6,13.19c-4,4-8.82,6-14.46,6-3.29,0-6.12-.59-8.47-1.76-2.35-1.18-4.33-2.77-5.93-4.8-1.6-2.02-3.32-5.13-5.15-9.31-1.83-4.18-3.41-7.88-4.73-11.08ZM319.45,274.37h61.81l-31.19-85.37-30.62,85.37Z"/>
    <path class="cls-11" d="M503.89,148.36h54.61c14.2,0,26.39,1.32,36.55,3.95,10.16,2.63,19.38,7.57,27.66,14.82,21.54,18.44,32.32,46.47,32.32,84.1,0,12.42-1.08,23.75-3.25,34.01-2.17,10.25-5.5,19.5-10.02,27.73-4.52,8.23-10.3,15.59-17.36,22.08-5.55,4.99-11.62,8.99-18.2,12-6.59,3.01-13.67,5.13-21.24,6.35-7.57,1.22-16.11,1.83-25.61,1.83h-54.61c-7.62,0-13.36-1.15-17.22-3.46-3.86-2.3-6.37-5.55-7.55-9.74-1.18-4.18-1.76-9.62-1.76-16.3v-151.7c0-9.03,2.02-15.57,6.07-19.61s10.58-6.07,19.62-6.07ZM520.12,181.52v140.41h31.75c6.96,0,12.42-.19,16.37-.56,3.95-.38,8.04-1.32,12.28-2.82,4.23-1.5,7.9-3.62,11.01-6.35,14.02-11.85,21.03-32.27,21.03-61.24,0-20.41-3.08-35.7-9.24-45.86-6.16-10.16-13.76-16.63-22.79-19.4-9.03-2.77-19.95-4.16-32.74-4.16h-27.66Z"/>
    <path class="cls-11" d="M828.17,180.67h-94.41v50.8h86.93c6.4,0,11.17,1.43,14.32,4.3,3.15,2.87,4.73,6.66,4.73,11.36s-1.55,8.54-4.66,11.5c-3.11,2.96-7.9,4.45-14.39,4.45h-86.93v58.84h97.65c6.58,0,11.55,1.53,14.89,4.59,3.34,3.06,5.01,7.13,5.01,12.21s-1.67,8.87-5.01,11.92c-3.34,3.06-8.3,4.59-14.89,4.59h-113.88c-9.13,0-15.69-2.02-19.69-6.07-4-4.04-6-10.58-6-19.61v-155.51c0-6.02.89-10.94,2.68-14.75,1.79-3.81,4.59-6.58,8.4-8.33,3.81-1.74,8.68-2.61,14.61-2.61h110.63c6.68,0,11.64,1.48,14.89,4.45,3.25,2.96,4.87,6.84,4.87,11.64s-1.62,8.82-4.87,11.78c-3.25,2.96-8.21,4.44-14.89,4.44Z"/>
  </g>
  <g>
    <path class="cls-6" d="M830.59,102c-.46.6-1.21,1.4-2.08,2.23-1.28,1.22-2.82,2.5-4.02,3.28-.65.42-1.53.11-1.79-.61l-16.17-46.32c-.26-.75.26-1.54,1.05-1.59,1.34-.09,3.36-.02,5.28.16,1.6.16,3.13.41,4.14.74,2.26.73,6.82,2.76,9.7,5.58.17.16.33.31.46.45,2.26,2.48,5.31,8.34,6.36,11.53.99,3,2.07,9.37,1.72,12.51-.03.24-.07.5-.11.77-.6,3.33-2.78,8.91-4.55,11.26Z"/>
    <path class="cls-6" d="M872.92,77.95c-3.7,1.24-9.65,3.24-15.75,5.31-10.2,3.45-20.82,7.08-22.03,7.49.05-.27.08-.53.11-.77.34-3.15-.73-9.51-1.72-12.51-1.05-3.19-4.1-9.05-6.36-11.53-.13-.14-.29-.29-.46-.45,4.46-1.5,28.49-9.59,37.3-12.49,1.32-.43,4.37.34,5.4,1.29,1.92,1.78,2.71,5.93,3.93,9.85,1.15,3.69,2.8,7.13,2.3,9.54-.26,1.24-1.51,3.89-2.71,4.29Z"/>
    <path class="cls-6" d="M854.01,46.08l-8.51,2.65-9.28,2.88c-2.54.8-5.24-.62-6.04-3.16l-11.1-35.65c-.8-2.54.63-5.25,3.17-6.03l17.79-5.54c2.54-.79,5.25.63,6.03,3.17l11.1,35.65c.8,2.54-.62,5.25-3.17,6.04Z"/>
    <path class="cls-6" d="M882.88,134.57l-17.79,5.54c-2.54.79-5.25-.63-6.04-3.17l-11.1-35.65c-.79-2.54.63-5.25,3.17-6.04l17.79-5.54c2.54-.79,5.25.63,6.04,3.17l11.1,35.65c.79,2.54-.63,5.24-3.17,6.03Z"/>
    <path class="cls-9" d="M845.5,48.72s2.79,8.43,2.79,8.43"/>
    <line class="cls-9" x1="857.14" y1="83.22" x2="859.93" y2="91.66"/>
    <path class="cls-6" d="M896.32,72.14c-1.49.1-4.37-.11-5.71-.55-1.48-.48-5.12-2.5-6.17-3.66-1.37-1.5-3.22-5.06-3.86-7-.02-.06-.05-.14-.07-.21-.58-1.89-1.18-5.54-.98-7.38.21-1.92,1.66-5.76,2.83-7.3.68-.9,2.48-2.55,3.7-3.34.4-.26.93-.08,1.08.37l9.81,28.09c.16.46-.16.94-.64.97Z"/>
    <line class="cls-7" x1="880.67" y1="60.67" x2="873.86" y2="63.04"/>
    <circle class="cls-8" cx="806.74" cy="86.34" r="3.49"/>
    <line class="cls-7" x1="808.31" y1="85.93" x2="814.23" y2="84.08"/>
    <path class="cls-10" d="M794.06,77.72c-.56,1.51-2.6,7.55.07,14.46,2.39,6.2,7.08,9.27,8.57,10.17"/>
    <path class="cls-10" d="M783.84,70.59c-.9,1.83-5.95,12.51-1.39,25.01,4.31,11.82,14.13,16.79,16.13,17.76"/>
  </g>
  <g>
    <path class="cls-3" d="M164.39,336.76l2.32-2.11c.53-.37,1.18-.25,1.65.14.77.62,1.51,1.31,2.25,1.97,1.02.17,4.12.46,4.74,1.31.36.5-.12,1-.39,1.44-.48.77-1.1,1.84-1.66,2.52-1.14,1.39-4.89,1.45-6.54,1.39-1.79-.07-4.3-.12-5.43-1.71-.57-.8-1.22-1.81-1.71-2.66-.24-.41-.45-.7,0-1.09.99-.86,3.5-.97,4.77-1.19ZM166.78,334.9c-.44.27-1,.91-1.4,1.27-.85.75-1.65,1.28-2.53,1.95-.42.32-.52.44-1.02.72,0-.07-.12.02-.14.03-.05.03-.52.3-.44.36.57.06,1.13.22,1.7.31.34.05.69.1,1.03.12.22.02.44.03.66.04l.61.08c1.69.02,3.43.12,5.11-.04.22-.02.47-.05.68-.12.57-.06,1.15-.13,1.72-.23.26-.05.52-.12.78-.16l-.19-.19c-.28-.32-1-.58-1.39-.9-.6-.48-1.21-1.01-1.79-1.51-.62-.53-1.38-1.29-2.05-1.73-.34-.34-1-.39-1.33,0ZM164.03,337.01v.04s.03-.03,0-.04ZM163.98,337.05c-.51.02-1.03.08-1.53.17-.62.11-2.52.51-2.84,1.06-.07.13-.02.22.08.32.16.15,1.14.56,1.33.51.08-.02.31-.26.42-.33.28-.18.64-.28.92-.48.14-.09.26-.23.4-.34.41-.29.88-.54,1.22-.9ZM175.24,338.56c.23-.29-.39-.62-.6-.72-1.07-.5-2.44-.67-3.6-.79.39.29.72.66,1.1.95.53.41,1.19.62,1.66,1.11.18.05,1.31-.39,1.44-.55ZM166.39,340.48c.76.02,1.58.02,2.34,0,1.5-.03,2.98-.19,4.44-.53.35-.08,1.17-.26,1.45-.43.18-.11.31-.42.43-.58-1.46.59-3.06.82-4.62,1-.28.03-.61,0-.86.04-.07,0-.04.07-.11.08-.22.03-.46-.04-.69-.04-.77,0-1.53.02-2.3,0-1.13-.03-2.21-.08-3.33-.24s-2.26-.4-3.3-.83c.29.75,1.21.86,1.91,1.02,1.48.32,3.13.49,4.64.53ZM166.51,343.21c.65.02,1.38.02,2.03,0,1.56-.06,3.87-.29,4.85-1.64.41-.56.72-1.2,1.11-1.77-1.38.39-2.8.66-4.23.8-.34.03-.63.03-.96.04-.65.02-1.3.04-1.95.04h-.2c-.43,0-.86,0-1.29,0-1.38-.16-2.81-.19-4.18-.53l-1.37-.35,1.37,2.11c.91,1.05,3.48,1.27,4.8,1.31Z"/>
    <path class="cls-2" d="M165.15,334.55s-.05.05-.08.08c-.01-.07,0-.09.08-.08Z"/>
    <path class="cls-2" d="M164.13,335.57l-.08.08s-.04-.02-.02-.04c.03-.04.09-.03.1-.04Z"/>
    <path class="cls-2" d="M163.86,334.44l.04-.04s-.03.03-.04.04Z"/>
    <path class="cls-2" d="M163.23,335.06l.12-.12s-.08.08-.12.12Z"/>
    <path class="cls-14" d="M168.11,334.9c.67.44,1.43,1.2,2.05,1.73.58.49,1.19,1.03,1.79,1.51.39.32,1.11.58,1.39.9.02.02.12.15.12.16-.19.02-.38.07-.57.11-.07.01-.15-.03-.13.08-.57.1-1.14.18-1.72.23-1.81.19-3.7.19-5.52.12-.28-.01-.61-.03-.88-.04-.22-.01-.44-.02-.66-.04l-2.61-.47c-.02-.07.02-.08.06-.11.09-.08.29-.18.4-.24.5-.28.59-.39,1.02-.72.88-.68,1.68-1.2,2.53-1.95.41-.36.96-1,1.4-1.27s.89-.29,1.33,0ZM167.93,336.53c.14.14.4-.02.33-.24-.09-.32-.57,0-.33.24ZM166.19,336.7c-.17.04-.23.38-.03.45.42.14.4-.54.03-.45ZM169.42,337.56c-.09.03-.13.3.07.31.32.02.18-.4-.07-.31ZM164.9,338.11c-.17.06-.03.4.17.25.1-.07.05-.32-.17-.25ZM171.03,338.62c-.2-.2-.48.18-.15.29.19.06.25-.18.15-.29ZM168.22,338.62c-.27.08.01.55.21.25.09-.14-.08-.29-.21-.25ZM164.12,338.7c-.09-.09-.3-.09-.31.09-.02.36.51.11.31-.09Z"/>
    <path class="cls-16" d="M165.89,340.68c.36.04.71.04,1.07.04.07,0,.17.02.21-.04h.2c.04.06.15.04.21.04.53,0,1.08.02,1.6,0,.08,0,.16.04.13-.08.33,0,.62,0,.96-.04,1.43-.14,2.85-.41,4.23-.8-.4.57-.71,1.21-1.11,1.77-.98,1.35-3.3,1.59-4.85,1.64h-2.03c-1.32-.04-3.89-.26-4.8-1.31l-1.37-2.11,1.37.35c1.37.34,2.8.37,4.18.53Z"/>
    <path class="cls-16" d="M166.47,340.02c-.02.12.06.08.13.08.65.03,1.38.02,2.03,0,.08,0,.16.04.13-.08.22,0,.46.07.69.04.07,0,.04-.07.11-.08.25-.03.58,0,.86-.04,1.56-.17,3.16-.41,4.62-1-.13.16-.26.48-.43.58-.28.17-1.1.34-1.45.43-1.46.34-2.95.5-4.44.53h-2.34c-1.51-.04-3.17-.2-4.64-.53-.7-.15-1.62-.27-1.91-1.02,1.05.43,2.18.67,3.3.83s2.2.21,3.33.24Z"/>
    <path class="cls-16" d="M163.98,337.05c-.34.36-.81.62-1.22.9-.15.1-.27.24-.4.34-.28.2-.64.3-.92.48-.11.07-.34.31-.42.33-.19.05-1.17-.36-1.33-.51-.1-.09-.15-.19-.08-.32.33-.55,2.22-.95,2.84-1.06.5-.09,1.02-.15,1.53-.17Z"/>
    <path class="cls-16" d="M175.24,338.56c-.13.17-1.26.6-1.44.55-.47-.49-1.14-.7-1.66-1.11-.38-.3-.71-.66-1.1-.95,1.17.12,2.53.28,3.6.79.21.1.83.43.6.72Z"/>
    <path class="cls-17" d="M171.04,339.63c-.21.07-.46.1-.68.12-1.68.16-3.42.06-5.11.04l-.61-.08c.26.01.59.03.88.04,1.82.07,3.71.07,5.52-.12Z"/>
    <path class="cls-17" d="M161.83,338.84c-.11.06-.32.16-.4.24-.04.03-.08.04-.06.11l2.61.47c-.34-.03-.69-.07-1.03-.12-.57-.09-1.14-.24-1.7-.31-.07-.06.4-.33.44-.36.03-.02.13-.1.14-.03Z"/>
    <path class="cls-16" d="M168.77,340.02c.02.12-.06.08-.13.08-.65.02-1.38.03-2.03,0-.08,0-.16.04-.13-.08.77.02,1.53,0,2.3,0Z"/>
    <path class="cls-15" d="M168.74,340.48c-.76.02-1.58.02-2.34,0h2.34Z"/>
    <path class="cls-16" d="M169.32,340.64c.02.12-.06.08-.13.08-.52.02-1.08,0-1.6,0-.07,0-.17.03-.21-.04.65,0,1.3-.02,1.95-.04Z"/>
    <path class="cls-15" d="M168.54,343.21c-.65.02-1.38.02-2.03,0h2.03Z"/>
    <path class="cls-17" d="M168.11,334.9c-.44-.29-.89-.27-1.33,0,.33-.39.98-.34,1.33,0Z"/>
    <path class="cls-17" d="M173.34,339.04l.19.19c-.26.03-.52.11-.78.16-.02-.12.06-.07.13-.08.19-.04.38-.09.57-.11,0,0-.1-.13-.12-.16Z"/>
    <path class="cls-16" d="M167.17,340.68c-.04.06-.15.04-.21.04-.37,0-.72,0-1.07-.04.43,0,.86,0,1.29,0Z"/>
    <path class="cls-4" d="M164.03,337.01s.03.03,0,.04v-.04Z"/>
    <path class="cls-13" d="M166.19,336.7c.37-.1.39.59-.03.45-.2-.07-.14-.4.03-.45Z"/>
    <path class="cls-13" d="M167.93,336.53c-.23-.23.24-.55.33-.24.06.21-.2.38-.33.24Z"/>
    <path class="cls-13" d="M171.03,338.62c.11.11.04.35-.15.29-.34-.1-.05-.49.15-.29Z"/>
    <path class="cls-13" d="M168.22,338.62c.13-.04.3.11.21.25-.2.3-.48-.17-.21-.25Z"/>
    <path class="cls-13" d="M164.12,338.7c.2.2-.33.45-.31.09.01-.18.22-.18.31-.09Z"/>
    <path class="cls-13" d="M169.42,337.56c.26-.09.39.33.07.31-.2-.01-.17-.28-.07-.31Z"/>
    <path class="cls-13" d="M164.9,338.11c.22-.07.27.18.17.25-.2.14-.34-.2-.17-.25Z"/>
  </g>
  <g>
    <path class="cls-1" d="M184.31,271.25c-.12-.3-.6-.81-.91-.91-.2-.06-.39-.02-.57.09-.04.02-.21.13-.21.19,0,.01.01.02.02.03.05.02.21.03.28.04.1.03.36.14.32.27-.02.07-.27.26-.28.32,0,.02.01.04.01.06l-.87.88c-.31-.28-.62-.57-.9-.87-.04-.04-.12-.08-.13-.15-.01-.1.13-.28.19-.35.15-.17.35-.33.55-.45v-.03c0-.08-.16-.05-.22-.04-.21.04-.49.19-.66.32-.04.03-.2.18-.22.18-.05.01-.07-.06-.12-.04-.04.06-.24.23-.24.29,0,.03.02.05.02.07,0,.05-.13.19-.16.24-.11.17-.35.62-.32.83,0,.05.05.07.09.04.18-.21.35-.47.57-.65.11-.09.17-.11.3-.01l.91.94-1.11,1.13c-.06.1.08.23.15.28s.11.05.18,0l1.1-1.1.96.98c.13.1.18.21.34.08.23-.19.15-.26-.02-.43-.32-.32-.66-.61-.96-.95l.88-.88s.06.03.09.02c.05-.03.18-.2.24-.24.04-.03.06-.04.11-.03.13.01.29.25.35.36.05.09.11.33.21.19.11-.17.1-.52.03-.7ZM180.84,271.5c-.13-.06-.19-.04-.3.04-.23.17-.4.44-.59.65.04-.25.14-.49.27-.7.04-.05.22-.29.22-.33,0-.03-.03-.04-.01-.09,0-.02.17-.2.18-.2.03,0,.07.05.12.03.27-.25.6-.46.96-.51l-.37.3c-.1.1-.31.34-.32.48,0,.05.02.08.04.13l-.2.2ZM181.74,272.42s-.02-.03-.03-.04h0c-.29-.28-.55-.55-.81-.83l.19-.2.03.02c.28.3.62.57.9.88,0,.01.03.01.02.03,0,.01-.02.01-.02.02-.05.06-.12.13-.18.18-.01,0-.01.02-.02.02s-.01-.02-.02-.02c-.03-.03-.04-.04-.06-.06ZM182.46,272.69s.01.02.01.02c0,.01.01.02.03.02.2.18.38.38.57.57l.02.02h.01s.01.02.02.03c.06.06.33.28.34.35,0,.04-.14.18-.18.19-.06.01-.08-.01-.13-.04-.21-.18-.44-.46-.64-.66-.12-.13-.26-.25-.37-.39l.21-.21s.1.08.11.1ZM182.69,272.14c-.09.09-.17.18-.26.26-.02.04-.06.06-.09.09h-.01s-.02.03-.02.03l-.02.02-.12.12c-.08.09-.17.17-.26.26-.06.06-.11.12-.17.18-.02.03-.04.05-.07.07l-.04.04c-.08.09-.16.17-.25.25-.01.01-.01.02-.02.02-.1.1-.18.21-.29.29t-.01.01v.02s-.13.12-.18.12c-.03-.01-.18-.15-.18-.18-.01-.05.06-.09.09-.12.01-.02.03-.03.04-.04.05-.05.1-.1.16-.16h.01c.18-.19.36-.37.54-.55h.01s.05-.06.07-.08h.01s.21-.22.21-.22l.07-.07s.02-.02.02-.02c.02-.02.03-.02.04-.04l1.04-1.04.21.21-.53.53ZM184.23,271.91l-.14-.25c-.11-.16-.31-.44-.53-.28-.05.04-.17.19-.21.21-.03.02-.05,0-.08-.01-.03-.03-.19-.2-.22-.24-.01-.01-.02-.03-.02-.04.12-.19.45-.32.16-.55-.12-.1-.31-.15-.47-.15v-.02c.17-.11.33-.22.55-.2.33.02.86.6.98.89.08.21.07.44-.02.64Z"/>
    <g>
      <path class="cls-12" d="M184.23,271.91l-.14-.25c-.11-.16-.31-.44-.53-.28-.05.04-.17.19-.21.21-.03.02-.05,0-.08-.01-.03-.03-.19-.2-.22-.24-.01-.01-.02-.03-.02-.04.12-.19.45-.32.16-.55-.12-.1-.31-.15-.47-.15v-.02c.17-.11.33-.22.55-.2.33.02.86.6.98.89.08.21.07.44-.02.64Z"/>
      <path class="cls-1" d="M183.22,271.61l-.53.53c-.09.09-.17.18-.26.26-.03.03-.07.05-.09.09h-.01s-.02.03-.02.03l-.02.02-.12.12c-.08.09-.17.17-.26.26-.06.05-.13.11-.17.18-.02.03-.04.05-.07.07h-.01s-.01.01-.02.01c-.01,0,0,.03-.01.03-.08.09-.16.17-.25.25-.02,0-.03,0-.02.02-.1.1-.18.21-.29.29t-.01.01h-.02s.01.02.01.02c-.03.04-.12.12-.17.12-.03-.01-.18-.15-.18-.18-.01-.05.06-.09.09-.12.01-.02.03-.03.04-.04.05-.05.1-.1.16-.16h.01c.18-.19.36-.37.54-.55h.01s.05-.06.07-.08h.01s.21-.22.21-.22c.03,0,.06-.04.07-.07,0,0,.02-.02.02-.02.03,0,.04-.02.05-.03h-.01s1.04-1.05,1.04-1.05l.21.21Z"/>
      <path class="cls-12" d="M181.32,270.69c-.1.1-.31.34-.32.48,0,.05.02.08.04.13l-.2.2c-.13-.06-.19-.04-.3.04-.23.17-.4.44-.59.65.04-.25.14-.49.27-.7.04-.05.22-.29.22-.33,0-.03-.03-.04-.01-.09,0-.02.17-.2.18-.2.03,0,.07.05.12.03.27-.25.6-.46.96-.51l-.37.3Z"/>
      <path class="cls-12" d="M183.46,273.7s-.14.18-.18.19c-.06.01-.08-.01-.13-.04-.21-.18-.44-.46-.64-.66-.12-.13-.26-.25-.37-.39l.21-.21s.1.08.11.1c0,.01.01.02.01.02,0,.01.01.02.03.02.2.18.38.38.57.57l.02.02h.01s.01.02.02.03c.06.06.33.28.34.35Z"/>
      <path class="cls-12" d="M182.02,272.25v.05c-.05.06-.12.13-.18.18h-.04s-.04-.04-.06-.06c0-.03-.01-.04-.03-.04h0c-.29-.28-.55-.55-.81-.83l.19-.2.03.02c.28.3.62.57.9.88Z"/>
    </g>
    <path class="cls-2" d="M182.04,272.28s-.02.01-.02.02v-.05s.03.01.02.03Z"/>
    <path class="cls-2" d="M181.84,272.48s-.01.02-.02.02-.01-.02-.02-.02h.04Z"/>
    <path class="cls-2" d="M181.98,272.45s-.02.03-.05.03c.02-.02.03-.02.04-.04h.01Z"/>
    <path class="cls-2" d="M181.91,272.5s-.04.07-.07.07l.07-.07Z"/>
    <path class="cls-2" d="M181.66,273.18l-.03.03s0-.02.01-.03h.02Z"/>
  </g>
  <path class="cls-12" d="M121.61,349.84c-.92,1.6-4.85,2.81-6.67,3.12-.64.1-2.36.29-3.43.4-.26-.07-.52-.15-.77-.23l7.83-20.11c.06.05.11.1.15.16.93,1.26.62,4.67.89,6.22.22,1.26,1.56,4.22,1.56,4.89s1.13,4.35.44,5.55Z"/>
  <path class="cls-11" d="M120.33,328.5l-1.76,4.52c-.81-.69-3.14-.77-3.63-1.62-.65-1.15,1.15-4.47,2.45-4.67.75-.11,1.69,1.72,2.44,1.78.15.01.31.01.5-.01Z"/>
  <path class="cls-12" d="M124.28,326.29c-.39,1.02-2.59,2.05-3.95,2.21l2.74-7.05c.11.05.22.1.33.13h0c.38,1.14,1.22,3.81.88,4.71Z"/>
  <path class="cls-12" d="M141.39,351.02c0,1.22-1.73,2.21-3.85,2.21s-3.86-.99-3.86-2.21,1.73-2.21,3.86-2.21,3.85.99,3.85,2.21Z"/>
  <path class="cls-12" d="M146.28,331.77c0,2.21-1.1,4-2.45,4s-2.44-1.79-2.44-4,1.09-4,2.44-4,2.45,1.79,2.45,4Z"/>
  <path class="cls-12" d="M155.02,344.21c0,.99-.8,1.78-1.78,1.78s-1.78-.79-1.78-1.78.8-1.77,1.78-1.77,1.78.79,1.78,1.77Z"/>
  <path class="cls-11" d="M147.35,150.88c-.33-.1-.6-.23-.68-.44-.05-.13.04-.3.17-.47l.51.91Z"/>
  <path class="cls-12" d="M147.31,149.4c-.1.14-.31.36-.47.57l-2.78-4.96h0s.01-.01.02-.01c.31.07,3.82.86,4.27,1.88.28.62-.66,1.95-1.04,2.52Z"/>
  <path class="cls-11" d="M148.71,153.3l-1.36-2.42c.54.17,1.24.29,1.45.59.24.37.12,1.36-.09,1.83Z"/>
  <path class="cls-11" d="M160.61,174.57c-.85-.68-1.97-1.37-2.63-1.76-.63-.37-1.95-1.05-2.67-1.19-.72-.14-2.96-2-2.96-2.66,0-.71-.59-2.67,0-2.82.59-.15.1-2.31-.26-2.96-.44-.78-1.57-2.33-2.41-2.67-.37-.15-1.28.21-1.63,0-.78-.47-1.39-2.49-1.33-3.41.03-.44.45-1.33,0-1.77-.44-.45,1.57-1.35,1.93-1.93.02-.03.04-.06.06-.1l11.9,21.27Z"/>
  <path class="cls-11" d="M162.81,178.48l-2.19-3.9c.38.31.72.62.92.89.46.62,1.18,2.75,1.27,3.01Z"/>
  <path class="cls-12" d="M170.57,259.47c-.24,1.04-1.46,3-2.37,3.56-1.48.92-5.28.66-6.81,1.48-.69.37-1.69,1.64-2.08,2.32-.64,1.13-1.22,3.79-2.07,4.77-.89,1.04-4.65,2.91-4.65,2.91l8.99-27.71s.72,2.73,1.24,3.49c.63.91,2.42,2.07,3.01,3.26.59,1.18,1.78-.05,2.37,0,.89.07,2.03,1.84,2.37,2.66.32.76.19,2.47,0,3.26Z"/>
  <path class="cls-12" d="M182.28,252.29c0,.33-1.7.29-2.26.22-.65-.08-1.63-.33-2.52-.72-.89-.38-.71-1.18-.67-1.61.08-.9,0-3.61,0-3.61h1.22s1.34,1.26,1.49,1.83c.04.13-.06.43,0,.56.28.51,1.49.96,1.95,1.33.24.18.68.61.79.89.09.26,0,.78,0,1.11Z"/>
  <path class="cls-12" d="M178.5,260.79c0,.58-1.1,1.05-2.45,1.05s-2.44-.47-2.44-1.05,1.09-1.06,2.44-1.06,2.45.48,2.45,1.06Z"/>
</svg>